<svg width="24" height="24" viewBox="0 0 24 24" fill="none" xmlns="http://www.w3.org/2000/svg">
    <g clip-path="url(#1a3x6wpg8a)" fill="#D9376E">
        <path d="M19 0H5a5.006 5.006 0 0 0-5 5v14a5.006 5.006 0 0 0 5 5h14a5.006 5.006 0 0 0 5-5V5a5.006 5.006 0 0 0-5-5zM5 2h14a3 3 0 0 1 3 3v14a2.95 2.95 0 0 1-.3 1.285l-9.163-9.163a5.001 5.001 0 0 0-7.072 0L2 14.586V5a3 3 0 0 1 3-3zm0 20a3 3 0 0 1-3-3v-1.586l4.878-4.878a3 3 0 0 1 4.244 0l9.163 9.164c-.4.196-.84.298-1.285.3H5z"/>
        <path d="M16 10.5a3.5 3.5 0 1 0 0-7 3.5 3.5 0 0 0 0 7zm0-5a1.5 1.5 0 1 1 0 3 1.5 1.5 0 0 1 0-3z"/>
    </g>
    <defs>
        <clipPath id="1a3x6wpg8a">
            <path fill="#fff" d="M0 0h24v24H0z"/>
        </clipPath>
    </defs>
</svg>
