<svg width="24" height="24" viewBox="0 0 24 24" fill="none" xmlns="http://www.w3.org/2000/svg">
    <g clip-path="url(#jscliwdmma)">
        <path d="M19 20H5a5.006 5.006 0 0 1-5-5V9a5.006 5.006 0 0 1 5-5h14a5.006 5.006 0 0 1 5 5v6a5.006 5.006 0 0 1-5 5zM5 6a3 3 0 0 0-3 3v6a3 3 0 0 0 3 3h14a3 3 0 0 0 3-3V9a3 3 0 0 0-3-3H5zm7 10a4 4 0 1 1 0-8 4 4 0 0 1 0 8zm0-6a2 2 0 1 0 0 4 2 2 0 0 0 0-4zM5 8a1 1 0 1 0 0 2 1 1 0 0 0 0-2zm13 1a1 1 0 1 0 2 0 1 1 0 0 0-2 0zM5 14a1 1 0 1 0 0 2 1 1 0 0 0 0-2zm13 1a1 1 0 1 0 2 0 1 1 0 0 0-2 0z" fill="#D9376E"/>
    </g>
    <defs>
        <clipPath id="jscliwdmma">
            <path fill="#fff" d="M0 0h24v24H0z"/>
        </clipPath>
    </defs>
</svg>
