<svg width="606" height="576" viewBox="0 0 606 576" fill="none" xmlns="http://www.w3.org/2000/svg">
<g opacity="0.1">
<path fill-rule="evenodd" clip-rule="evenodd" d="M334.924 244.228C331.712 234.338 322.497 227.642 312.098 227.642H293.8C283.402 227.642 274.187 234.337 270.974 244.226L259.926 278.235C259.92 278.253 259.926 278.273 259.942 278.284C259.966 278.301 260 278.29 260.009 278.262L270.976 244.489C274.188 234.599 283.404 227.902 293.802 227.902H312.094C322.492 227.902 331.707 234.598 334.919 244.487L345.892 278.263C345.9 278.29 345.933 278.3 345.955 278.283C345.969 278.273 345.975 278.255 345.97 278.238L334.924 244.228ZM323.805 235.809C323.81 235.809 323.812 235.805 323.81 235.801C323.809 235.799 323.807 235.798 323.805 235.798H282.089C282.087 235.798 282.085 235.799 282.084 235.801C282.082 235.805 282.085 235.809 282.089 235.809H323.805ZM299.986 269.411C301.754 270.693 304.146 270.692 305.913 269.409C307.682 268.125 308.422 265.843 307.745 263.763C307.07 261.686 305.133 260.277 302.949 260.277C300.766 260.277 298.83 261.685 298.153 263.76C297.474 265.841 298.214 268.125 299.986 269.411ZM265.041 291.438C256.636 285.327 253.118 274.501 256.326 264.617L265.422 236.591C268.633 226.699 277.85 220 288.25 220H317.644C328.045 220 337.261 226.699 340.472 236.591L349.568 264.618C352.776 274.501 349.259 285.327 340.855 291.438L317.064 308.737C308.649 314.856 297.251 314.856 288.836 308.738L265.041 291.438Z" fill="white"/>
<path fill-rule="evenodd" clip-rule="evenodd" d="M340.671 236.962C337.457 227.075 328.243 220.381 317.846 220.381H288.05C277.652 220.381 268.438 227.076 265.224 236.964L256.022 265.284C252.808 275.174 256.329 286.008 264.742 292.119L288.841 309.624C297.251 315.733 308.638 315.734 317.049 309.626L341.154 292.12C349.569 286.008 353.091 275.172 349.876 265.281L340.671 236.962ZM256.06 294.939C247.647 288.827 244.127 277.992 247.341 268.103L259.863 229.581C263.077 219.694 272.291 213 282.687 213H323.208C333.604 213 342.818 219.693 346.032 229.579L358.557 268.1C361.772 277.991 358.252 288.827 349.837 294.939L317.05 318.754C308.639 324.864 297.25 324.863 288.839 318.753L256.06 294.939Z" fill="white"/>
<path fill-rule="evenodd" clip-rule="evenodd" d="M346.418 228.701C343.203 218.816 333.989 212.123 323.594 212.123H282.31C271.915 212.123 262.702 218.815 259.487 228.699L246.743 267.876C243.525 277.77 247.048 288.611 255.467 294.722L288.851 318.956C297.259 325.06 308.64 325.06 317.049 318.956L350.433 294.722C358.852 288.61 362.375 277.77 359.158 267.877L346.418 228.701ZM247.076 297.449C238.655 291.336 235.131 280.493 238.352 270.597L254.308 221.572C257.524 211.69 266.736 205 277.13 205H328.774C339.168 205 348.38 211.69 351.596 221.574L367.549 270.598C370.769 280.493 367.245 291.336 358.824 297.448L317.047 327.769C308.639 333.871 297.26 333.871 288.853 327.769L247.076 297.449Z" fill="white"/>
<path fill-rule="evenodd" clip-rule="evenodd" d="M352.157 220.442C348.94 210.56 339.728 203.871 329.336 203.871H276.557C266.165 203.871 256.953 210.559 253.736 220.441L237.445 270.471C234.222 280.371 237.749 291.22 246.177 297.331L288.855 328.279C297.259 334.373 308.629 334.373 317.033 328.279L359.712 297.331C368.14 291.219 371.667 280.371 368.444 270.472L352.157 220.442ZM238.082 299.956C229.656 293.844 226.13 282.997 229.352 273.099L248.732 213.571C251.949 203.689 261.16 197 271.553 197H334.336C344.728 197 353.939 203.688 357.157 213.569L376.54 273.098C379.763 282.997 376.237 293.845 367.809 299.957L317.035 336.781C308.63 342.876 297.258 342.876 288.853 336.78L238.082 299.956Z" fill="white"/>
<path fill-rule="evenodd" clip-rule="evenodd" d="M357.114 212.221C353.909 202.321 344.688 195.615 334.282 195.615H270.624C260.218 195.615 250.998 202.321 247.792 212.22L228.06 273.139C224.863 283.01 228.371 293.817 236.755 299.929L288.313 337.511C296.738 343.652 308.163 343.652 316.588 337.511L368.146 299.928C376.53 293.817 380.038 283.01 376.842 273.14L357.114 212.221ZM229 302.455C220.617 296.343 217.109 285.536 220.306 275.666L242.998 205.605C246.204 195.706 255.425 189 265.83 189H339.07C349.476 189 358.696 195.706 361.902 205.606L384.59 275.667C387.786 285.537 384.279 296.343 375.896 302.455L316.589 345.693C308.164 351.835 296.737 351.835 288.312 345.693L229 302.455Z" fill="white"/>
<path fill-rule="evenodd" clip-rule="evenodd" d="M362.851 203.966C359.644 194.069 350.424 187.366 340.021 187.366H264.872C254.468 187.366 245.249 194.069 242.041 203.967L218.785 275.732C215.584 285.607 219.096 296.42 227.487 302.531L288.32 346.834C296.741 352.967 308.157 352.967 316.578 346.834L377.41 302.532C385.802 296.421 389.313 285.607 386.112 275.732L362.851 203.966ZM220.016 304.96C211.625 298.848 208.114 288.034 211.316 278.159L237.433 197.599C240.641 187.702 249.86 181 260.263 181H344.629C355.032 181 364.251 187.702 367.459 197.598L393.581 278.159C396.783 288.034 393.272 298.849 384.881 304.961L316.579 354.709C308.157 360.842 296.74 360.842 288.319 354.709L220.016 304.96Z" fill="white"/>
<path fill-rule="evenodd" clip-rule="evenodd" d="M368.595 195.709C365.385 185.815 356.168 179.116 345.767 179.116H259.128C248.726 179.116 239.509 185.815 236.299 195.709L209.497 278.319C206.292 288.199 209.806 299.02 218.205 305.131L288.323 356.156C296.741 362.282 308.148 362.282 316.566 356.157L386.689 305.131C395.088 299.02 398.602 288.199 395.397 278.319L368.595 195.709ZM211.027 307.466C202.629 301.354 199.116 290.534 202.322 280.654L231.868 189.593C235.078 179.7 244.295 173 254.696 173H350.203C360.605 173 369.822 179.7 373.032 189.594L402.573 280.654C405.779 290.534 402.265 301.354 393.867 307.466L316.567 363.722C308.149 369.849 296.74 369.848 288.322 363.722L211.027 307.466Z" fill="white"/>
<path fill-rule="evenodd" clip-rule="evenodd" d="M374.344 187.451C371.133 177.559 361.917 170.861 351.517 170.861H253.381C242.982 170.861 233.766 177.559 230.554 187.45L200.208 280.92C196.999 290.804 200.515 301.63 208.919 307.741L288.329 365.491C296.744 371.611 308.144 371.611 316.559 365.491L395.974 307.741C404.379 301.63 407.895 290.804 404.687 280.92L374.344 187.451ZM202.037 309.972C193.634 303.86 190.118 293.035 193.327 283.152L226.3 181.589C229.511 171.698 238.727 165 249.127 165H355.766C366.166 165 375.382 171.698 378.594 181.589L411.566 283.151C414.775 293.034 411.259 303.86 402.856 309.972L316.561 372.733C308.145 378.854 296.743 378.854 288.327 372.733L202.037 309.972Z" fill="white"/>
<path fill-rule="evenodd" clip-rule="evenodd" d="M380.084 180.196C376.871 170.307 367.656 163.612 357.258 163.612H247.635C237.238 163.612 228.023 170.307 224.81 180.196L190.918 284.509C187.705 294.396 191.223 305.227 199.633 311.339L288.334 375.807C296.747 381.922 308.141 381.922 316.554 375.808L405.26 311.339C413.67 305.227 417.189 294.396 413.976 284.508L380.084 180.196ZM193.047 313.482C184.639 307.37 181.121 296.54 184.332 286.654L220.733 174.586C223.945 164.696 233.161 158 243.559 158H361.33C371.728 158 380.943 164.696 384.156 174.585L420.561 286.653C423.773 296.54 420.255 307.37 411.846 313.482L316.555 382.744C308.142 388.859 296.747 388.859 288.333 382.743L193.047 313.482Z" fill="white"/>
<path fill-rule="evenodd" clip-rule="evenodd" d="M385.831 171.934C382.617 162.046 373.403 155.352 363.006 155.352H241.893C231.496 155.352 222.282 162.046 219.068 171.934L181.635 287.114C178.421 297.004 181.941 307.839 190.354 313.95L288.342 385.129C296.753 391.238 308.141 391.238 316.552 385.129L414.544 313.95C422.958 307.839 426.479 297.004 423.265 287.114L385.831 171.934ZM184.056 315.995C175.643 309.884 172.123 299.05 175.337 289.16L215.174 166.582C218.387 156.694 227.602 150 237.998 150H366.895C377.292 150 386.507 156.694 389.72 166.582L429.557 289.16C432.771 299.05 429.25 309.884 420.837 315.995L316.552 391.753C308.141 397.863 296.752 397.863 288.341 391.753L184.056 315.995Z" fill="white"/>
<path fill-rule="evenodd" clip-rule="evenodd" d="M391.573 163.688C388.359 153.802 379.145 147.109 368.749 147.109H236.146C225.75 147.109 216.537 153.802 213.322 163.688L172.342 289.713C169.126 299.605 172.648 310.443 181.065 316.555L288.347 394.448C296.756 400.554 308.139 400.554 316.548 394.448L423.83 316.555C432.247 310.443 435.77 299.605 432.553 289.713L391.573 163.688ZM175.064 318.502C166.647 312.39 163.126 301.553 166.342 291.661L209.611 158.579C212.825 148.693 222.039 142 232.435 142H372.46C382.856 142 392.07 148.693 395.284 158.579L438.554 291.661C441.77 301.553 438.248 312.39 429.831 318.502L316.549 400.76C308.14 406.867 296.755 406.867 288.346 400.76L175.064 318.502Z" fill="white"/>
<path fill-rule="evenodd" clip-rule="evenodd" d="M397.319 155.431C394.103 145.546 384.891 138.855 374.496 138.855H230.396C220.001 138.855 210.788 145.547 207.573 155.431L163.049 292.304C159.83 302.199 163.354 313.04 171.774 319.152L288.351 403.766C296.759 409.868 308.139 409.868 316.546 403.766L433.123 319.152C441.544 313.04 445.067 302.199 441.848 292.304L397.319 155.431ZM166.071 321.006C157.651 314.894 154.128 304.054 157.347 294.16L204.051 150.576C207.266 140.691 216.479 134 226.874 134H378.018C388.413 134 397.626 140.691 400.841 150.576L447.55 294.16C450.769 304.054 447.246 314.895 438.826 321.007L316.547 409.766C308.139 415.87 296.758 415.87 288.35 409.766L166.071 321.006Z" fill="white"/>
<path fill-rule="evenodd" clip-rule="evenodd" d="M403.072 147.164C399.856 137.28 390.644 130.59 380.25 130.59H224.661C214.267 130.59 205.055 137.28 201.839 147.164L153.765 294.904C150.545 304.8 154.07 315.643 162.492 321.755L288.355 413.087C296.761 419.188 308.138 419.188 316.545 413.088L442.418 321.755C450.841 315.643 454.366 304.8 451.145 294.904L403.072 147.164ZM157.079 323.518C148.656 317.406 145.131 306.562 148.351 296.666L198.494 142.574C201.71 132.69 210.923 126 221.316 126H383.588C393.982 126 403.195 132.69 406.411 142.574L456.549 296.666C459.769 306.562 456.244 317.406 447.821 323.517L316.545 418.773C308.138 424.873 296.762 424.873 288.355 418.773L157.079 323.518Z" fill="white"/>
<path fill-rule="evenodd" clip-rule="evenodd" d="M408.807 138.92C405.591 129.037 396.378 122.348 385.986 122.348H218.911C208.518 122.348 199.306 129.037 196.089 138.92L144.473 297.505C141.252 307.402 144.777 318.248 153.202 324.359L288.353 422.404C296.758 428.502 308.132 428.502 316.538 422.404L451.694 324.359C460.119 318.248 463.644 307.402 460.423 297.505L408.807 138.92ZM148.081 326.018C139.656 319.906 136.131 309.061 139.352 299.163L192.923 134.572C196.14 124.689 205.352 118 215.745 118H389.152C399.545 118 408.757 124.689 411.973 134.572L465.544 299.163C468.766 309.06 465.24 319.906 456.815 326.018L316.538 427.777C308.132 433.875 296.758 433.874 288.353 427.777L148.081 326.018Z" fill="white"/>
<path fill-rule="evenodd" clip-rule="evenodd" d="M414.558 130.664C411.34 120.783 402.129 114.094 391.737 114.094H213.166C202.773 114.094 193.562 120.783 190.345 130.664L135.177 300.112C131.954 310.011 135.481 320.859 143.908 326.971L288.361 431.727C296.766 437.821 308.136 437.821 316.541 431.727L460.994 326.971C469.421 320.859 472.948 310.011 469.725 300.112L414.558 130.664ZM126.154 319.148C125.435 318.626 125.134 317.701 125.409 316.856L187.362 126.57C190.579 116.688 199.791 110 210.183 110H394.724C405.116 110 414.328 116.689 417.545 126.571L474.543 301.668C477.765 311.566 474.239 322.413 465.812 328.525L316.541 436.781C308.136 442.877 296.766 442.877 288.361 436.782L126.154 319.148Z" fill="white"/>
<path fill-rule="evenodd" clip-rule="evenodd" d="M420.294 122.414C417.076 112.533 407.865 105.846 397.474 105.846H207.418C197.027 105.846 187.816 112.534 184.598 122.414L125.881 302.701C122.657 312.602 126.184 323.452 134.614 329.564L288.358 441.035C296.762 447.129 308.13 447.129 316.534 441.035L470.278 329.564C478.708 323.452 482.235 312.602 479.01 302.701L420.294 122.414ZM130.09 331.037C121.66 324.925 118.133 314.076 121.357 304.176L181.794 118.569C185.012 108.688 194.223 102 204.615 102H400.272C410.663 102 419.874 108.687 423.092 118.568L483.539 304.175C486.764 314.075 483.236 324.926 474.806 331.037L316.533 445.786C308.13 451.879 296.762 451.879 288.358 445.786L130.09 331.037Z" fill="white"/>
<path fill-rule="evenodd" clip-rule="evenodd" d="M426.043 115.154C422.825 105.274 413.614 98.5869 403.223 98.5869H201.671C191.28 98.5869 182.069 105.274 178.851 115.154L116.587 306.309C113.362 316.211 116.891 327.063 125.322 333.174L288.362 451.352C296.764 457.442 308.13 457.442 316.532 451.352L479.572 333.174C488.003 327.063 491.532 316.211 488.307 306.309L426.043 115.154ZM121.092 334.539C112.66 328.427 109.132 317.576 112.357 307.674L176.231 111.567C179.449 101.687 188.66 95 199.051 95H405.843C416.234 95 425.445 101.687 428.663 111.567L492.537 307.674C495.762 317.576 492.233 328.427 483.802 334.539L316.533 455.79C308.13 461.881 296.764 461.881 288.361 455.79L121.092 334.539Z" fill="white"/>
<path fill-rule="evenodd" clip-rule="evenodd" d="M431.974 106.916C428.761 97.0279 419.546 90.3334 409.149 90.3334H196.744C186.347 90.3334 177.132 97.0279 173.919 106.916L108.268 308.938C105.054 318.827 108.574 329.661 116.987 335.772L288.838 460.624C297.249 466.735 308.639 466.735 317.05 460.624L488.906 335.772C497.319 329.661 500.839 318.827 497.625 308.938L431.974 106.916ZM113.055 337.045C104.643 330.933 101.123 320.099 104.337 310.21L171.495 103.582C174.708 93.6941 183.923 87 194.32 87H411.574C421.97 87 431.185 93.6941 434.399 103.582L501.556 310.21C504.77 320.099 501.25 330.933 492.838 337.045L317.05 464.752C308.639 470.863 297.249 470.863 288.838 464.752L113.055 337.045Z" fill="white"/>
<path fill-rule="evenodd" clip-rule="evenodd" d="M437.721 98.6707C434.507 88.7843 425.293 82.0913 414.897 82.0913H190.994C180.598 82.0913 171.384 88.7846 168.17 98.6712L98.9689 311.532C95.7534 321.423 99.2744 332.259 107.689 338.371L288.842 469.94C297.252 476.048 308.639 476.048 317.049 469.94L498.206 338.371C506.622 332.259 510.143 321.423 506.927 311.532L437.721 98.6707ZM90.8523 329.963C90.3129 329.568 90.088 328.871 90.2947 328.235L165.936 95.5795C169.15 85.693 178.364 79 188.76 79H417.142C427.538 79 436.752 85.6933 439.966 95.5799L510.555 312.712C513.771 322.603 510.25 333.439 501.835 339.551L317.049 473.757C308.639 479.865 297.252 479.865 288.842 473.757L90.8523 329.963Z" fill="white"/>
<path fill-rule="evenodd" clip-rule="evenodd" d="M443.461 90.4104C440.247 80.5246 431.033 73.8322 420.638 73.8322H185.256C174.86 73.8322 165.647 80.5249 162.432 90.4109L89.6875 314.132C86.4711 324.024 89.9929 334.862 98.4097 340.974L288.845 479.255C297.255 485.361 308.639 485.361 317.048 479.255L507.489 340.974C515.906 334.862 519.428 324.024 516.211 314.132L443.461 90.4104ZM95.0645 342.057C86.6471 335.945 83.1252 325.106 86.3422 315.214L160.37 87.5778C163.585 77.6922 172.798 71 183.193 71H422.705C433.101 71 442.314 77.6924 445.529 87.5782L519.551 315.214C522.768 325.106 519.246 335.945 510.829 342.056L317.048 482.761C308.638 488.867 297.255 488.867 288.845 482.761L95.0645 342.057Z" fill="white"/>
<path fill-rule="evenodd" clip-rule="evenodd" d="M516.785 343.582C525.205 337.47 528.727 326.63 525.51 316.736L449.213 82.1612C445.998 72.2762 436.785 65.5846 426.39 65.5846H179.512C169.118 65.5846 159.905 72.276 156.689 82.1608L80.388 316.736C77.1699 326.63 80.6926 337.47 89.112 343.582L288.85 488.576C297.258 494.68 308.639 494.68 317.048 488.576L516.785 343.582ZM72.709 334.873C72.2556 334.544 72.0659 333.96 72.2393 333.427L159.904 63.8922C160.079 63.3598 160.576 63 161.137 63H428.268C438.663 63 447.876 69.6916 451.091 79.5766L528.551 317.726C531.769 327.62 528.246 338.46 519.827 344.572L303.709 501.453C303.255 501.78 302.643 501.778 302.191 501.45L72.709 334.873Z" fill="white"/>
<path fill-rule="evenodd" clip-rule="evenodd" d="M454.958 73.9064C451.742 64.0221 442.529 57.3312 432.135 57.3312H173.759C163.365 57.3312 154.152 64.0221 150.937 73.9064L71.095 319.329C67.876 329.224 71.3997 340.066 79.8208 346.178L288.853 497.885C297.261 503.987 308.64 503.987 317.047 497.885L526.074 346.178C534.495 340.066 538.019 329.224 534.8 319.329L454.958 73.9064ZM77.0732 347.076C68.6516 340.964 65.1278 330.122 68.3471 320.227L149.243 71.5749C152.458 61.6908 161.671 55 172.065 55H433.829C444.223 55 453.436 61.6908 456.652 71.575L537.548 320.227C540.767 330.122 537.243 340.964 528.822 347.076L317.047 500.77C308.639 506.871 297.261 506.871 288.854 500.77L77.0732 347.076Z" fill="white"/>
<path fill-rule="evenodd" clip-rule="evenodd" d="M460.698 65.6513C457.481 55.7679 448.269 49.0778 437.875 49.0778H168.013C157.619 49.0778 148.407 55.7679 145.19 65.6513L61.7921 321.939C58.5718 331.835 62.0964 342.679 70.5197 348.791L288.852 507.206C297.259 513.306 308.635 513.306 317.041 507.206L535.369 348.791C543.792 342.679 547.316 331.835 544.096 321.939L460.698 65.6513ZM54.5577 339.777C54.194 339.516 54.0409 339.05 54.1793 338.625L148.832 47.7195C148.973 47.2902 149.373 47 149.825 47H439.396C449.79 47 459.003 53.6905 462.219 63.5743L551.711 338.62C551.851 339.048 551.699 339.519 551.334 339.784L317.041 509.774C308.635 515.873 297.259 515.873 288.853 509.774L54.5577 339.777Z" fill="white"/>
<path fill-rule="evenodd" clip-rule="evenodd" d="M466.451 58.3967C463.235 48.514 454.022 41.8245 443.629 41.8245H162.269C151.875 41.8245 142.663 48.514 139.447 58.3967L52.5023 325.533C49.2811 335.43 52.8063 346.275 61.2311 352.387L288.853 517.515C297.259 523.612 308.633 523.613 317.039 517.515L544.667 352.387C553.091 346.275 556.617 335.43 553.396 325.533L466.451 58.3967ZM45.485 343.223C45.1653 342.989 45.0318 342.577 45.1544 342.2L143.302 40.6331C143.429 40.2548 143.784 40 144.183 40H444.956C455.348 40 464.56 46.6892 467.777 56.5717L560.747 342.198C560.868 342.576 560.732 342.989 560.411 343.221L317.039 519.776C308.633 525.874 297.259 525.874 288.853 519.776L45.485 343.223Z" fill="white"/>
<path fill-rule="evenodd" clip-rule="evenodd" d="M553.946 354.993C562.372 348.881 565.898 338.035 562.676 328.137L472.193 50.1599C468.976 40.2775 459.764 33.5884 449.372 33.5884H156.531C146.139 33.5884 136.927 40.2773 133.71 50.1595L43.2216 328.137C39.9995 338.035 43.5253 348.881 51.9514 354.993L288.857 526.828C297.263 532.925 308.635 532.925 317.04 526.828L553.946 354.993ZM36.4215 345.679C36.14 345.477 36.0217 345.115 36.129 344.786L137.779 32.5525C137.885 32.2231 138.192 32 138.538 32H450.519C460.912 32 470.124 38.6888 473.34 48.5709L569.77 344.792C569.877 345.118 569.761 345.476 569.483 345.677L303.416 538.655C303.138 538.86 302.759 538.862 302.479 538.659L36.4215 345.679Z" fill="white"/>
<path fill-rule="evenodd" clip-rule="evenodd" d="M477.936 41.8997C474.719 32.018 465.508 25.3294 455.115 25.3294H150.777C140.385 25.3294 131.173 32.0178 127.956 41.8993L33.9154 330.737C30.6925 340.636 34.2189 351.484 42.6465 357.596L288.854 536.147C297.258 542.242 308.629 542.242 317.033 536.147L563.241 357.596C571.668 351.484 575.195 340.636 571.972 330.738L477.936 41.8997ZM27.3327 348.138C27.1018 347.966 27.0064 347.666 27.0955 347.392L132.238 24.4662C132.324 24.189 132.58 24 132.87 24H456.079C466.471 24 475.682 30.6882 478.9 40.5695L578.802 347.395C578.888 347.667 578.791 347.963 578.56 348.13L317.033 537.783C308.629 543.877 297.258 543.877 288.854 537.783L27.3327 348.138Z" fill="white"/>
<path fill-rule="evenodd" clip-rule="evenodd" d="M572.537 360.2C580.966 354.088 584.493 343.239 581.27 333.339L483.682 33.6452C480.465 23.7641 471.253 17.0762 460.862 17.0762H145.036C134.645 17.0762 125.434 23.7639 122.216 33.6448L24.6233 333.338C21.3994 343.239 24.9266 354.088 33.356 360.2L288.859 545.451C297.262 551.544 308.63 551.544 317.034 545.451L572.537 360.2ZM18.2692 350.586C18.0766 350.445 17.9962 350.196 18.0701 349.97L126.706 16.3683C126.778 16.1485 126.984 16 127.215 16H461.646C472.038 16 481.249 22.6879 484.466 32.569L587.825 349.982C587.897 350.201 587.819 350.442 587.632 350.577L303.269 556.764C303.077 556.905 302.815 556.905 302.622 556.765L18.2692 350.586Z" fill="white"/>
<path fill-rule="evenodd" clip-rule="evenodd" d="M581.856 363.412C590.271 357.3 593.792 346.464 590.577 336.573L489.421 25.399C486.207 15.5121 476.993 8.81864 466.597 8.81864H139.303C128.907 8.81864 119.693 15.5119 116.478 25.3986L15.3174 336.573C12.1019 346.464 15.623 357.3 24.0382 363.412L288.841 555.731C297.251 561.839 308.637 561.839 317.048 555.731L581.856 363.412ZM9.19794 353.651C9.05066 353.549 8.98793 353.362 9.04345 353.191L115.879 24.5796C119.093 14.6931 128.307 8 138.703 8H467.197C477.593 8 486.807 14.6931 490.021 24.5796L591.557 336.889C594.772 346.781 591.251 357.617 582.836 363.729L303.186 566.821C303.042 566.928 302.846 566.928 302.701 566.823L9.19794 353.651Z" fill="white"/>
<path fill-rule="evenodd" clip-rule="evenodd" d="M115.913 0C115.787 0 115.676 0.0816835 115.638 0.201757L0.0145508 355.777C-0.0250344 355.898 0.0179869 356.032 0.121239 356.108L302.778 575.877C302.879 575.95 303.016 575.948 303.115 575.873L605.783 356.101C605.882 356.029 605.925 355.902 605.891 355.785L495.592 16.5785C492.377 6.69255 483.163 0 472.768 0H115.913ZM14.7408 366.013C6.3235 359.901 2.80159 349.062 6.01847 339.17L110.737 17.1486C113.952 7.26296 123.165 0.570685 133.561 0.570685H472.341C482.737 0.570685 491.95 7.26314 495.165 17.149L599.878 339.17C603.095 349.062 599.573 359.901 591.156 366.012L317.049 565.041C308.64 571.147 297.256 571.147 288.847 565.041L14.7408 366.013Z" fill="white"/>
</g>
</svg>
